<?xml version="1.0" encoding="utf-8"?>
<!-- Generator: Adobe Illustrator 25.0.0, SVG Export Plug-In . SVG Version: 6.00 Build 0)  -->
<svg version="1.1" id="Layer_1" xmlns="http://www.w3.org/2000/svg" xmlns:xlink="http://www.w3.org/1999/xlink" x="0px" y="0px"
	 viewBox="0 0 500 500" style="enable-background:new 0 0 500 500;" xml:space="preserve">
<style type="text/css">
	.st0{fill:url(#SVGID_1_);}
	.st1{fill:#2271B1;}
	.st2{fill:#111111;}
	.st3{font-family:'Microsoft-Himalaya';}
	.st4{font-size:123.349px;}
	.st5{letter-spacing:6;}
</style>
<g>
	<linearGradient id="SVGID_1_" gradientUnits="userSpaceOnUse" x1="142.4303" y1="216.289" x2="249.8804" y2="216.289">
		<stop  offset="0" style="stop-color:#FFFFFF"/>
		<stop  offset="0.188" style="stop-color:#ABC9E1"/>
		<stop  offset="1" style="stop-color:#2271B1"/>
	</linearGradient>
	<polygon class="st0" points="228.91,172.88 249.88,194.26 184.9,259.7 142.43,258.64 	"/>
	<polygon class="st1" points="422.78,259.7 381.84,259.7 283.96,159.93 270.16,173.83 249.27,152.7 283.49,118.76 	"/>
	<polygon class="st1" points="355.02,259.7 314.08,259.7 249.88,194.26 228.91,172.88 216.2,159.93 117.14,259.7 74.67,258.64 
		215.73,118.76 249.27,152.7 270.16,173.83 	"/>
	<g>
		<path class="st1" d="M246.94,239.71h-13.53c-0.49,0-0.89-0.4-0.89-0.89v-13.53c0-0.49,0.4-0.89,0.89-0.89h13.53
			c0.49,0,0.89,0.4,0.89,0.89v13.53C247.83,239.31,247.43,239.71,246.94,239.71z"/>
		<path class="st1" d="M265.91,239.71h-13.53c-0.49,0-0.89-0.4-0.89-0.89v-13.53c0-0.49,0.4-0.89,0.89-0.89h13.53
			c0.49,0,0.89,0.4,0.89,0.89v13.53C266.8,239.31,266.4,239.71,265.91,239.71z"/>
		<path class="st1" d="M246.94,259.7h-13.53c-0.49,0-0.89-0.4-0.89-0.89v-13.53c0-0.49,0.4-0.89,0.89-0.89h13.53
			c0.49,0,0.89,0.4,0.89,0.89v13.53C247.83,259.3,247.43,259.7,246.94,259.7z"/>
		<path class="st1" d="M265.91,259.7h-13.53c-0.49,0-0.89-0.4-0.89-0.89v-13.53c0-0.49,0.4-0.89,0.89-0.89h13.53
			c0.49,0,0.89,0.4,0.89,0.89v13.53C266.8,259.3,266.4,259.7,265.91,259.7z"/>
	</g>
	<text transform="matrix(1 0 0 1 73.3965 330.8284)" class="st2 st3 st4 st5">RENTAL</text>
</g>
</svg>
